<?xml version="1.0" encoding="utf-8"?>
<!-- Generator: Adobe Illustrator 16.0.0, SVG Export Plug-In . SVG Version: 6.00 Build 0)  -->
<!DOCTYPE svg PUBLIC "-//W3C//DTD SVG 1.1//EN" "http://www.w3.org/Graphics/SVG/1.1/DTD/svg11.dtd">
<svg version="1.1" id="Layer_1" xmlns="http://www.w3.org/2000/svg" xmlns:xlink="http://www.w3.org/1999/xlink" x="0px" y="0px"
	 width="24px" height="24px" viewBox="0 0 24 24" enable-background="new 0 0 24 24" xml:space="preserve">
<g>
	<path fill="#1E110A" d="M12.002,2.516c-5.091,0-9.221,4.248-9.221,9.484c0,5.236,4.13,9.484,9.221,9.484
		c5.088,0,9.217-4.248,9.217-9.484C21.219,6.764,17.09,2.516,12.002,2.516z M12.002,18.402c-3.439,0-6.228-2.865-6.228-6.402
		c0-3.538,2.788-6.404,6.228-6.404c3.436,0,6.224,2.867,6.224,6.404C18.226,15.537,15.438,18.402,12.002,18.402z"/>
	<rect x="0.563" y="9.307" fill="#1E110A" width="22.873" height="5.386"/>
</g>
</svg>
